<?xml version="1.0" encoding="UTF-8"?>
<svg width="144px" height="50px" viewBox="0 0 144 50" version="1.1" xmlns="http://www.w3.org/2000/svg" xmlns:xlink="http://www.w3.org/1999/xlink">
    <!-- Generator: Sketch 54.1 (76490) - https://sketchapp.com -->
    <title>logo</title>
    <desc>Created with Sketch.</desc>
    <g id="Page-1" stroke="none" stroke-width="1" fill="none" fill-rule="evenodd">
        <g id="RB.com" transform="translate(-648.000000, -18.000000)" fill-rule="nonzero">
            <g id="logo" transform="translate(648.000000, 18.000000)">
                <g id="589d18df14809b9102355a3f_Icon-with-Dark-text-underneath-Copy" transform="translate(0.000000, 0.526316)">
                    <path d="M84.8765995,36.6563091 L88.9668882,36.6563091 C89.5478385,36.6524456 90.1280588,36.6979497 90.7012204,36.7923251 C91.1906399,36.8689108 91.6622641,37.0322468 92.0936591,37.2745636 C92.4802153,37.4945251 92.8034399,37.8096105 93.032312,38.1895803 C93.2734331,38.6241187 93.3915889,39.115546 93.3742054,39.6115656 C93.3740508,39.8837417 93.3342684,40.1544611 93.2560968,40.4152965 C93.1763074,40.6819989 93.0546246,40.9344782 92.8955546,41.1633844 C92.7269114,41.4045537 92.516414,41.6139099 92.2739302,41.7816389 C92.001926,41.9714169 91.6959999,42.1078127 91.3725748,42.1835043 L91.3725748,42.2576949 C92.0975173,42.3535443 92.7738172,42.67364 93.3058268,43.1727115 C93.7474942,43.6871372 93.9704473,44.3523706 93.9274512,45.027475 C93.9415799,45.5727189 93.817596,46.1127395 93.566909,46.5978414 C93.3455732,47.0383515 93.0216248,47.4198949 92.6220399,47.7106995 C92.169482,48.002097 91.668581,48.2114186 91.1425737,48.328954 C90.5485417,48.4731183 89.9388742,48.5437221 89.3274304,48.5391606 L84.889032,48.5391606 L84.8765995,36.6563091 Z M88.8425634,41.453964 C89.3546424,41.4997411 89.8662687,41.3615612 90.284732,41.0644637 C90.5882342,40.7931474 90.7526442,40.4002484 90.7323016,39.9948834 C90.7640709,39.6145896 90.5885229,39.2465217 90.2722995,39.0304064 C89.8374452,38.8071962 89.3494297,38.7067011 88.8612121,38.7398268 L87.5744495,38.7398268 L87.5744495,41.4601466 L88.8425634,41.453964 Z M89.0974294,46.4741905 C90.5768955,46.4741905 91.3166286,45.9321874 91.3166286,44.8481812 C91.3543444,44.3955738 91.1395547,43.9588287 90.7571666,43.7105929 C90.2444708,43.4378617 89.6651377,43.3136269 89.0849969,43.3520053 L87.562017,43.3520053 L87.562017,46.4432778 L89.0974294,46.4741905 Z" id="Shape" fill="#888888"></path>
                    <path d="M101.946406,45.7508328 L98.2788222,45.7508328 L97.5453054,48.5824384 L94.7915091,48.5824384 L98.5212557,36.6810393 L101.766135,36.6810393 L105.495882,48.5824384 L102.636409,48.5824384 L101.946406,45.7508328 Z M101.399377,43.6487675 L101.125862,42.554457 C100.951807,41.956811 100.786041,41.3241306 100.628563,40.6564157 C100.471084,39.9887009 100.311534,39.3436553 100.149912,38.7212791 L100.081533,38.7212791 L99.6339634,40.6687808 C99.4806294,41.332374 99.3190071,41.9609327 99.1490964,42.554457 L98.8382842,43.6302199 L101.399377,43.6487675 Z" id="Shape" fill="#888888"></path>
                    <path d="M106.919402,36.6563091 L109.691847,36.6563091 L112.799969,42.5730047 L113.974839,45.2005863 L114.049434,45.2005863 C113.987271,44.565845 113.916821,43.858974 113.838082,43.0799734 C113.761364,42.3404953 113.721945,41.5976588 113.719973,40.8542572 L113.719973,36.6563091 L116.287282,36.6563091 L116.287282,48.5577082 L113.514837,48.5577082 L110.406715,42.622465 L109.231845,40.0319787 L109.15725,40.0319787 C109.219412,40.6914501 109.289863,41.3962603 109.368602,42.1464091 C109.445888,42.8734359 109.48531,43.6039522 109.486711,44.33503 L109.486711,48.5515256 L106.919402,48.5515256 L106.919402,36.6563091 Z" id="Path" fill="#888888"></path>
                    <path d="M118.730266,36.6563091 L122.105687,36.6563091 C122.947506,36.643576 123.786245,36.7603628 124.592184,37.0025316 C125.284871,37.2193606 125.921408,37.58444 126.457058,38.0721119 C127.003956,38.5854552 127.419559,39.2213787 127.669225,39.9268754 C127.968297,40.77663 128.111471,41.6729038 128.09193,42.5730047 C128.110366,43.4790888 127.967253,44.381256 127.669225,45.2376815 C127.41658,45.9372836 127.008631,46.5712491 126.475706,47.092445 C125.945421,47.5957998 125.308056,47.9740328 124.610833,48.1991206 C123.838825,48.4513877 123.030115,48.574648 122.217579,48.5638907 L118.730266,48.5638907 L118.730266,36.6563091 Z M121.937848,46.3690873 C122.409525,46.3757227 122.879345,46.3089694 123.330287,46.1712458 C123.729695,46.0537503 124.094463,45.8415925 124.393264,45.5529913 C124.709485,45.2182632 124.945386,44.8166586 125.083268,44.3783078 C125.26221,43.7935334 125.34615,43.184098 125.331917,42.5730047 C125.346617,41.9699995 125.262638,41.3686288 125.083268,40.7924317 C124.94706,40.3606279 124.710702,39.9667154 124.393264,39.6424783 C124.096663,39.3510116 123.731128,39.1384073 123.330287,39.0242239 C122.877304,38.8971761 122.40848,38.8347277 121.937848,38.8387475 L121.4219,38.8387475 L121.4219,46.3690873 L121.937848,46.3690873 Z" id="Shape" fill="#888888"></path>
                    <rect id="Rectangle" fill="#888888" x="129.900857" y="36.6563091" width="2.69785002" height="11.9013991"></rect>
                    <polygon id="Path" fill="#888888" points="137.602784 38.9191206 134.320607 38.9191206 134.320607 36.6563091 143.601459 36.6563091 143.601459 38.9191206 140.319282 38.9191206 140.319282 48.5577082 137.602784 48.5577082"></polygon>
                    <path d="M6.42138035,48.5577082 L4.351371,44.5761492 L3.1578521,44.5761492 L3.1578521,48.5577082 L0,48.5577082 L0,36.6934044 L4.51299335,36.6934044 C5.12678986,36.6899429 5.73928172,36.7500312 6.34056917,36.8726982 C6.8838991,36.9780661 7.40126774,37.1880921 7.86354902,37.4909527 C8.30346055,37.7893929 8.66052452,38.1934311 8.90166182,38.6656362 C9.17710115,39.2444455 9.30925133,39.8804154 9.28706897,40.5203997 C9.32030273,41.2682551 9.13921741,42.0101105 8.76490445,42.6595603 C8.42254993,43.2148502 7.93762989,43.669399 7.36003324,43.9764424 L9.94599086,48.5577082 L6.42138035,48.5577082 Z M3.1578521,42.0969487 L4.2954248,42.0969487 C5.5676828,42.0969487 6.2038118,41.5734932 6.2038118,40.5265823 C6.25038722,40.1122428 6.06407467,39.7060026 5.71894474,39.4693671 C5.27875627,39.2486304 4.78744722,39.1483407 4.2954248,39.1787875 L3.1578521,39.1787875 L3.1578521,42.0969487 Z" id="Shape" fill="#22205F"></path>
                    <polygon id="Path" fill="#22205F" points="11.655458 36.6934044 19.363601 36.6934044 19.363601 39.320986 14.8070939 39.320986 14.8070939 41.181932 18.6984628 41.181932 18.6984628 43.8095137 14.8070939 43.8095137 14.8070939 45.9301266 19.543872 45.9301266 19.543872 48.5577082 11.655458 48.5577082"></polygon>
                    <path d="M23.0001039,44.9223718 C23.4264817,45.2601999 23.8969958,45.5388981 24.3987588,45.7508328 C24.8399513,45.9526115 25.3181369,46.06204 25.80363,46.0723251 C26.1640428,46.0997654 26.5247061,46.0224391 26.8417428,45.8497535 C27.0515529,45.7147643 27.1743731,45.479852 27.1649875,45.231499 C27.1672696,45.1012199 27.1281084,44.9735541 27.0530951,44.8667288 C26.9633091,44.7568327 26.8536827,44.6645747 26.7298504,44.5946969 C26.5688545,44.4991438 26.4004873,44.4164502 26.2263346,44.3473951 L25.548764,44.0815456 L24.0630816,43.4632911 C23.738329,43.339272 23.4295055,43.177396 23.1430775,42.9810526 C22.8543983,42.782797 22.5967509,42.5432131 22.3784794,42.27006 C22.1536563,41.9874966 21.9772336,41.6699861 21.8563149,41.3303131 C21.7247071,40.9631818 21.6574239,40.5763099 21.6573951,40.1865423 C21.6533475,39.6894253 21.766168,39.1982468 21.986856,38.7521919 C22.2102218,38.3043845 22.5233037,37.9067379 22.9068602,37.5836909 C23.322242,37.2362315 23.7984997,36.9679549 24.3117314,36.7923251 C24.8875547,36.5840584 25.4955095,36.4773539 26.108226,36.4770153 C26.8196624,36.4817274 27.5246589,36.611497 28.1906678,36.8603331 C28.8935743,37.1214949 29.5302059,37.5330621 30.0555411,38.0659294 L28.4766151,40.0381612 C28.1143336,39.7882965 27.7242751,39.5808398 27.3141774,39.4199067 C26.9180325,39.2668037 26.4958872,39.1912295 26.0709285,39.1973351 C25.7513364,39.1811564 25.4333328,39.2516782 25.1509244,39.4013591 C24.9315385,39.528086 24.8037433,39.7679017 24.8214634,40.0196136 C24.8408591,40.2990429 25.0233982,40.541109 25.2876818,40.6378681 C25.598494,40.7903709 26.0294869,40.9696647 26.5806606,41.1757495 L28.0290455,41.7445436 C28.7065716,41.9910995 29.3024521,42.4190057 29.7509452,42.9810526 C30.1814005,43.5683233 30.4003847,44.2826975 30.3725696,45.0089274 C30.3660699,46.0326278 29.9123105,47.0029216 29.1293207,47.6674217 C28.6984462,48.0315627 28.2030254,48.3125265 27.6685033,48.4958827 C27.0305055,48.7123978 26.3595297,48.8169963 25.6855214,48.80501 C24.886615,48.797578 24.0945582,48.6575777 23.3419973,48.3907795 C22.5357764,48.115047 21.7952011,47.6773196 21.1663118,47.1048101 L23.0001039,44.9223718 Z" id="Path" fill="#22205F"></path>
                    <polygon id="Path" fill="#22205F" points="34.301236 39.320986 31.1433839 39.320986 31.1433839 36.6934044 40.6169402 36.6934044 40.6169402 39.320986 37.4590881 39.320986 37.4590881 48.5577082 34.301236 48.5577082"></polygon>
                    <polygon id="Path" fill="#22205F" points="42.469381 36.6934044 45.6272331 36.6934044 45.6272331 45.9301266 50.1402264 45.9301266 50.1402264 48.5577082 42.469381 48.5577082"></polygon>
                    <polygon id="Path" fill="#22205F" points="51.7191525 36.6934044 59.4272954 36.6934044 59.4272954 39.320986 54.8770046 39.320986 54.8770046 41.181932 58.7683735 41.181932 58.7683735 43.8095137 54.8770046 43.8095137 54.8770046 45.9301266 59.6075665 45.9301266 59.6075665 48.5577082 51.7191525 48.5577082"></polygon>
                    <path d="M63.0762308,44.9223718 C63.4987609,45.2592445 63.9650366,45.5379091 64.4624533,45.7508328 C64.9036457,45.9526115 65.3818313,46.06204 65.8673245,46.0723251 C66.2277373,46.0997654 66.5884005,46.0224391 66.9054373,45.8497535 C67.1152473,45.7147643 67.2380676,45.479852 67.228682,45.231499 C67.230964,45.1012199 67.1918029,44.9735541 67.1167896,44.8667288 C67.0270036,44.7568327 66.9173771,44.6645747 66.7935449,44.5946969 C66.6325489,44.4991438 66.4641817,44.4164502 66.2900291,44.3473951 L65.6124585,44.0815456 L64.1267761,43.4632911 C63.8020234,43.339272 63.4932,43.177396 63.2067719,42.9810526 C62.9158896,42.7832787 62.6561228,42.543672 62.4359576,42.27006 C62.2111345,41.9874966 62.0347117,41.6699861 61.9137931,41.3303131 C61.7843009,40.962813 61.7191221,40.5759514 61.7210895,40.1865423 C61.7170419,39.6894253 61.8298624,39.1982468 62.0505505,38.7521919 C62.2739163,38.3043845 62.5869981,37.9067379 62.9705546,37.5836909 C63.3859364,37.2362315 63.8621941,36.9679549 64.3754258,36.7923251 C64.9507889,36.5931837 65.5565363,36.494865 66.1657042,36.5017455 C66.8771405,36.5064576 67.5821371,36.6362272 68.248146,36.8850633 C68.9510525,37.1462251 69.5876841,37.5577923 70.1130193,38.0906596 L68.5340933,40.0628914 C68.1718118,39.8130267 67.7817533,39.60557 67.3716556,39.4446369 C66.9755107,39.2915339 66.5533654,39.2159597 66.1284067,39.2220653 C65.808788,39.2055732 65.4907011,39.2761135 65.2084026,39.4260893 C64.9890166,39.5528162 64.8612215,39.7926319 64.8789416,40.0443438 C64.8983372,40.3237731 65.0808764,40.5658392 65.34516,40.6625983 C65.6559722,40.815101 66.0869651,40.9943948 66.6381388,41.2004797 L68.0865237,41.7692738 C68.7640498,42.0158297 69.3599302,42.4437359 69.8084233,43.0057828 C70.2388787,43.5930535 70.4578629,44.3074277 70.4300478,45.0336576 C70.4235481,46.057358 69.9697887,47.0276518 69.1867989,47.6921519 C68.7608562,48.0332202 68.2765131,48.2950231 67.7570627,48.46497 C67.1190649,48.6814851 66.4480891,48.7860835 65.7740808,48.7740973 C64.9751744,48.7666653 64.1831176,48.626665 63.4305567,48.3598668 C62.6243358,48.0841342 61.8837605,47.6464069 61.2548712,47.0738974 L63.0762308,44.9223718 Z" id="Path" fill="#22205F"></path>
                    <path d="M73.1527628,44.9223718 C73.5752929,45.2592445 74.0415686,45.5379091 74.5389853,45.7508328 C74.9801777,45.9526115 75.4583633,46.06204 75.9438565,46.0723251 C76.3042693,46.0997654 76.6649325,46.0224391 76.9819693,45.8497535 C77.1917793,45.7147643 77.3145995,45.479852 77.305214,45.231499 C77.307496,45.1012199 77.2683349,44.9735541 77.1933216,44.8667288 C77.1035356,44.7568327 76.9939091,44.6645747 76.8700769,44.5946969 C76.7090809,44.4991438 76.5407137,44.4164502 76.3665611,44.3473951 L75.6889904,44.0815456 L74.2033081,43.4632911 C73.8785554,43.339272 73.5697319,43.177396 73.2833039,42.9810526 C72.9924216,42.7832787 72.7326548,42.543672 72.5124896,42.27006 C72.2876665,41.9874966 72.1112437,41.6699861 71.9903251,41.3303131 C71.8608329,40.962813 71.7956541,40.5759514 71.7976215,40.1865423 C71.7935739,39.6894253 71.9063944,39.1982468 72.1270825,38.7521919 C72.3504483,38.3043845 72.6635301,37.9067379 73.0470866,37.5836909 C73.4624684,37.2362315 73.9387261,36.9679549 74.4519578,36.7923251 C75.0273209,36.5931837 75.6330682,36.494865 76.2422362,36.5017455 C76.9536725,36.5064576 77.6586691,36.6362272 78.324678,36.8850633 C79.0275844,37.1462251 79.6642161,37.5577923 80.1895513,38.0906596 L78.6106253,40.0628914 C78.2483438,39.8130267 77.8582853,39.60557 77.4481876,39.4446369 C77.0520427,39.2915339 76.6298973,39.2159597 76.2049387,39.2220653 C75.8853466,39.2058866 75.5673429,39.2764084 75.2849346,39.4260893 C75.0655486,39.5528162 74.9377535,39.7926319 74.9554736,40.0443438 C74.9748692,40.3237731 75.1574084,40.5658392 75.4216919,40.6625983 C75.7325042,40.815101 76.1634971,40.9943948 76.7146708,41.2004797 L78.1630557,41.7692738 C78.8405818,42.0158297 79.4364622,42.4437359 79.8849553,43.0057828 C80.3154107,43.5930535 80.5343949,44.3074277 80.5065798,45.0336576 C80.5000801,46.057358 80.0463207,47.0276518 79.2633309,47.6921519 C78.8324564,48.0562929 78.3370356,48.3372567 77.8025135,48.5206129 C77.1645157,48.737128 76.4935399,48.8417264 75.8195316,48.8297402 C75.0206251,48.8223082 74.2285684,48.6823079 73.4760075,48.4155097 C72.6697865,48.1397771 71.9292113,47.7020498 71.300322,47.1295403 L73.1527628,44.9223718 Z" id="Path" fill="#22205F"></path>
                    <polygon id="Path" fill="#FF6633" points="82.5268592 3.6291539 41.7420804 20.5075017 61.4475748 22.7146702 90.614193 4.69873418"></polygon>
                    <path d="M95.730162,16.7856096 L103.649657,20.0623584 C104.706419,19.036056 118.282696,5.81159227 123.280557,0.853191206 L95.730162,16.7856096 Z" id="Path" fill="#FF6633"></path>
                    <polygon id="Path" fill="#FF6633" points="81.0411768 11.7468354 72.8978968 16.779427 82.5330754 22.7146702 102.23857 20.5075017"></polygon>
                    <polygon id="Path" fill="#FF6633" points="122.851636 0.00618254497 99.9572081 0 84.4041649 2.90579614 111.631315 6.49785476"></polygon>
                    <path d="M48.2877856,16.7856096 L40.3682904,20.0623584 C39.3115289,19.036056 25.7352514,5.81159227 20.7373909,0.853191206 L48.2877856,16.7856096 Z" id="Path" fill="#FF6633"></path>
                    <polygon id="Path" fill="#FF6633" points="21.197393 0.00618254497 44.0918207 0 59.6448639 2.90579614 32.4114977 6.49785476"></polygon>
                    <polygon id="Path" fill="#FF6633" points="61.4475748 3.64151899 53.360241 4.70491672 63.0078521 10.6648901 70.7222113 7.47469687"></polygon>
                </g>
            </g>
        </g>
    </g>
</svg>